<mxfile host="app.diagrams.net" agent="Mozilla/5.0 (Windows NT 10.0; Win64; x64) AppleWebKit/537.36 (KHTML, like Gecko) Chrome/130.0.0.0 Safari/537.36" version="24.8.3">
  <diagram name="Сторінка-1" id="Y6gb7wJsDb1kQQDB2Cb_">
    <mxGraphModel grid="1" page="1" gridSize="10" guides="1" tooltips="1" connect="1" arrows="1" fold="1" pageScale="1" pageWidth="827" pageHeight="1169" math="0" shadow="0">
      <root>
        <mxCell id="0" />
        <mxCell id="1" parent="0" />
        <mxCell id="NqEdJR7iOXJKLZb9J06m-1" value="Main" style="text;html=1;align=center;verticalAlign=middle;whiteSpace=wrap;rounded=0;" vertex="1" parent="1">
          <mxGeometry x="70" width="60" height="30" as="geometry" />
        </mxCell>
        <mxCell id="NqEdJR7iOXJKLZb9J06m-4" value="" style="edgeStyle=orthogonalEdgeStyle;rounded=0;orthogonalLoop=1;jettySize=auto;html=1;" edge="1" parent="1" source="NqEdJR7iOXJKLZb9J06m-2" target="NqEdJR7iOXJKLZb9J06m-3">
          <mxGeometry relative="1" as="geometry" />
        </mxCell>
        <mxCell id="NqEdJR7iOXJKLZb9J06m-2" value="Початок програми" style="ellipse;whiteSpace=wrap;html=1;" vertex="1" parent="1">
          <mxGeometry x="40" y="50" width="120" height="50" as="geometry" />
        </mxCell>
        <mxCell id="NqEdJR7iOXJKLZb9J06m-6" value="" style="edgeStyle=orthogonalEdgeStyle;rounded=0;orthogonalLoop=1;jettySize=auto;html=1;" edge="1" parent="1" source="NqEdJR7iOXJKLZb9J06m-3" target="NqEdJR7iOXJKLZb9J06m-5">
          <mxGeometry relative="1" as="geometry" />
        </mxCell>
        <mxCell id="NqEdJR7iOXJKLZb9J06m-3" value="Створення тестових масивів" style="whiteSpace=wrap;html=1;" vertex="1" parent="1">
          <mxGeometry x="40" y="140" width="120" height="60" as="geometry" />
        </mxCell>
        <mxCell id="NqEdJR7iOXJKLZb9J06m-17" value="" style="edgeStyle=orthogonalEdgeStyle;rounded=0;orthogonalLoop=1;jettySize=auto;html=1;" edge="1" parent="1" source="NqEdJR7iOXJKLZb9J06m-5" target="NqEdJR7iOXJKLZb9J06m-16">
          <mxGeometry relative="1" as="geometry" />
        </mxCell>
        <mxCell id="NqEdJR7iOXJKLZb9J06m-5" value="YearConverter від 1 року" style="shape=process;whiteSpace=wrap;html=1;backgroundOutline=1;" vertex="1" parent="1">
          <mxGeometry x="40" y="240" width="120" height="60" as="geometry" />
        </mxCell>
        <mxCell id="NqEdJR7iOXJKLZb9J06m-8" value="YearConverter" style="text;html=1;align=center;verticalAlign=middle;whiteSpace=wrap;rounded=0;" vertex="1" parent="1">
          <mxGeometry x="270" width="60" height="30" as="geometry" />
        </mxCell>
        <mxCell id="NqEdJR7iOXJKLZb9J06m-11" value="" style="edgeStyle=orthogonalEdgeStyle;rounded=0;orthogonalLoop=1;jettySize=auto;html=1;" edge="1" parent="1" source="NqEdJR7iOXJKLZb9J06m-9" target="NqEdJR7iOXJKLZb9J06m-10">
          <mxGeometry relative="1" as="geometry" />
        </mxCell>
        <mxCell id="NqEdJR7iOXJKLZb9J06m-9" value="YearConverter(n)" style="ellipse;whiteSpace=wrap;html=1;" vertex="1" parent="1">
          <mxGeometry x="240" y="50" width="120" height="45" as="geometry" />
        </mxCell>
        <mxCell id="NqEdJR7iOXJKLZb9J06m-13" value="" style="edgeStyle=orthogonalEdgeStyle;rounded=0;orthogonalLoop=1;jettySize=auto;html=1;" edge="1" parent="1" source="NqEdJR7iOXJKLZb9J06m-10" target="NqEdJR7iOXJKLZb9J06m-12">
          <mxGeometry relative="1" as="geometry" />
        </mxCell>
        <mxCell id="NqEdJR7iOXJKLZb9J06m-10" value="Створення списку років" style="whiteSpace=wrap;html=1;" vertex="1" parent="1">
          <mxGeometry x="240" y="150" width="120" height="60" as="geometry" />
        </mxCell>
        <mxCell id="NqEdJR7iOXJKLZb9J06m-15" value="" style="edgeStyle=orthogonalEdgeStyle;rounded=0;orthogonalLoop=1;jettySize=auto;html=1;" edge="1" parent="1" source="NqEdJR7iOXJKLZb9J06m-12" target="NqEdJR7iOXJKLZb9J06m-14">
          <mxGeometry relative="1" as="geometry" />
        </mxCell>
        <mxCell id="NqEdJR7iOXJKLZb9J06m-12" value="Вивід року" style="shape=parallelogram;perimeter=parallelogramPerimeter;whiteSpace=wrap;html=1;fixedSize=1;" vertex="1" parent="1">
          <mxGeometry x="240" y="260" width="120" height="60" as="geometry" />
        </mxCell>
        <mxCell id="NqEdJR7iOXJKLZb9J06m-14" value="Завершення функції" style="ellipse;whiteSpace=wrap;html=1;" vertex="1" parent="1">
          <mxGeometry x="245" y="370" width="110" height="40" as="geometry" />
        </mxCell>
        <mxCell id="NqEdJR7iOXJKLZb9J06m-21" value="" style="edgeStyle=orthogonalEdgeStyle;rounded=0;orthogonalLoop=1;jettySize=auto;html=1;" edge="1" parent="1" source="NqEdJR7iOXJKLZb9J06m-16" target="NqEdJR7iOXJKLZb9J06m-20">
          <mxGeometry relative="1" as="geometry" />
        </mxCell>
        <mxCell id="NqEdJR7iOXJKLZb9J06m-16" value="YearConverter від 2 років" style="shape=process;whiteSpace=wrap;html=1;backgroundOutline=1;" vertex="1" parent="1">
          <mxGeometry x="40" y="340" width="120" height="60" as="geometry" />
        </mxCell>
        <mxCell id="NqEdJR7iOXJKLZb9J06m-18" value="MonthConverter" style="text;html=1;align=center;verticalAlign=middle;whiteSpace=wrap;rounded=0;" vertex="1" parent="1">
          <mxGeometry x="442" width="60" height="30" as="geometry" />
        </mxCell>
        <mxCell id="NqEdJR7iOXJKLZb9J06m-25" value="" style="edgeStyle=orthogonalEdgeStyle;rounded=0;orthogonalLoop=1;jettySize=auto;html=1;" edge="1" parent="1" source="NqEdJR7iOXJKLZb9J06m-19" target="NqEdJR7iOXJKLZb9J06m-24">
          <mxGeometry relative="1" as="geometry" />
        </mxCell>
        <mxCell id="NqEdJR7iOXJKLZb9J06m-19" value="MonthConverter(n)" style="ellipse;whiteSpace=wrap;html=1;" vertex="1" parent="1">
          <mxGeometry x="414" y="50" width="116" height="40" as="geometry" />
        </mxCell>
        <mxCell id="NqEdJR7iOXJKLZb9J06m-41" value="" style="edgeStyle=orthogonalEdgeStyle;rounded=0;orthogonalLoop=1;jettySize=auto;html=1;" edge="1" parent="1" source="NqEdJR7iOXJKLZb9J06m-20" target="NqEdJR7iOXJKLZb9J06m-40">
          <mxGeometry relative="1" as="geometry" />
        </mxCell>
        <mxCell id="NqEdJR7iOXJKLZb9J06m-20" value="MonthConverter від першого тестового місяця" style="shape=process;whiteSpace=wrap;html=1;backgroundOutline=1;" vertex="1" parent="1">
          <mxGeometry x="40" y="450" width="120" height="60" as="geometry" />
        </mxCell>
        <mxCell id="NqEdJR7iOXJKLZb9J06m-34" value="" style="edgeStyle=orthogonalEdgeStyle;rounded=0;orthogonalLoop=1;jettySize=auto;html=1;" edge="1" parent="1" source="NqEdJR7iOXJKLZb9J06m-24" target="NqEdJR7iOXJKLZb9J06m-33">
          <mxGeometry relative="1" as="geometry" />
        </mxCell>
        <mxCell id="NqEdJR7iOXJKLZb9J06m-35" value="Так" style="edgeLabel;html=1;align=center;verticalAlign=middle;resizable=0;points=[];" connectable="0" vertex="1" parent="NqEdJR7iOXJKLZb9J06m-34">
          <mxGeometry x="0.105" y="2" relative="1" as="geometry">
            <mxPoint as="offset" />
          </mxGeometry>
        </mxCell>
        <mxCell id="NqEdJR7iOXJKLZb9J06m-37" value="" style="edgeStyle=orthogonalEdgeStyle;rounded=0;orthogonalLoop=1;jettySize=auto;html=1;" edge="1" parent="1" source="NqEdJR7iOXJKLZb9J06m-24" target="NqEdJR7iOXJKLZb9J06m-36">
          <mxGeometry relative="1" as="geometry" />
        </mxCell>
        <mxCell id="NqEdJR7iOXJKLZb9J06m-44" value="Ні" style="edgeLabel;html=1;align=center;verticalAlign=middle;resizable=0;points=[];" connectable="0" vertex="1" parent="NqEdJR7iOXJKLZb9J06m-37">
          <mxGeometry x="-0.1481" y="1" relative="1" as="geometry">
            <mxPoint as="offset" />
          </mxGeometry>
        </mxCell>
        <mxCell id="NqEdJR7iOXJKLZb9J06m-24" value="Перевірка чи місяць є в списку умов" style="rhombus;whiteSpace=wrap;html=1;" vertex="1" parent="1">
          <mxGeometry x="418" y="140" width="108" height="110" as="geometry" />
        </mxCell>
        <mxCell id="NqEdJR7iOXJKLZb9J06m-33" value="Повернення можливих знаків зодіаку" style="ellipse;whiteSpace=wrap;html=1;" vertex="1" parent="1">
          <mxGeometry x="414" y="340" width="118" height="45" as="geometry" />
        </mxCell>
        <mxCell id="NqEdJR7iOXJKLZb9J06m-36" value="Повернення &quot;невідомий місяць&quot;" style="ellipse;whiteSpace=wrap;html=1;" vertex="1" parent="1">
          <mxGeometry x="580" y="167.5" width="120" height="55" as="geometry" />
        </mxCell>
        <mxCell id="NqEdJR7iOXJKLZb9J06m-43" value="" style="edgeStyle=orthogonalEdgeStyle;rounded=0;orthogonalLoop=1;jettySize=auto;html=1;" edge="1" parent="1" source="NqEdJR7iOXJKLZb9J06m-40" target="NqEdJR7iOXJKLZb9J06m-42">
          <mxGeometry relative="1" as="geometry" />
        </mxCell>
        <mxCell id="NqEdJR7iOXJKLZb9J06m-40" value="Виведення результату функції MonthConverter" style="shape=parallelogram;perimeter=parallelogramPerimeter;whiteSpace=wrap;html=1;fixedSize=1;" vertex="1" parent="1">
          <mxGeometry x="25" y="570" width="150" height="60" as="geometry" />
        </mxCell>
        <mxCell id="NqEdJR7iOXJKLZb9J06m-42" value="Завершення програми" style="ellipse;whiteSpace=wrap;html=1;" vertex="1" parent="1">
          <mxGeometry x="45" y="690" width="110" height="40" as="geometry" />
        </mxCell>
      </root>
    </mxGraphModel>
  </diagram>
</mxfile>
